<?xml version="1.0" encoding="UTF-8" standalone="no"?>
<svg
   xmlns:dc="http://purl.org/dc/elements/1.1/"
   xmlns:cc="http://creativecommons.org/ns#"
   xmlns:rdf="http://www.w3.org/1999/02/22-rdf-syntax-ns#"
   xmlns:svg="http://www.w3.org/2000/svg"
   xmlns="http://www.w3.org/2000/svg"
   xmlns:sodipodi="http://sodipodi.sourceforge.net/DTD/sodipodi-0.dtd"
   xmlns:inkscape="http://www.inkscape.org/namespaces/inkscape"
   width="640"
   height="320"
   viewBox="0 0 169.33333 84.666664"
   version="1.1"
   id="svg8"
   inkscape:version="1.0beta2 (2b71d25, 2019-12-03)"
   sodipodi:docname="shitsumon.svg">
  <defs
     id="defs2" />
  <sodipodi:namedview
     id="base"
     pagecolor="#7c7c7c"
     bordercolor="#666666"
     borderopacity="1.0"
     inkscape:pageopacity="0"
     inkscape:pageshadow="2"
     inkscape:zoom="0.91304683"
     inkscape:cx="377.52616"
     inkscape:cy="420.58996"
     inkscape:document-units="px"
     inkscape:current-layer="layer1"
     inkscape:document-rotation="0"
     showgrid="false"
     units="px"
     inkscape:window-width="1792"
     inkscape:window-height="1120"
     inkscape:window-x="0"
     inkscape:window-y="0"
     inkscape:window-maximized="0" />
  <metadata
     id="metadata5">
    <rdf:RDF>
      <cc:Work
         rdf:about="">
        <dc:format>image/svg+xml</dc:format>
        <dc:type
           rdf:resource="http://purl.org/dc/dcmitype/StillImage" />
        <dc:title />
      </cc:Work>
    </rdf:RDF>
  </metadata>
  <g
     inkscape:label="レイヤー 1"
     inkscape:groupmode="layer"
     id="layer1">
    <path
       id="rect833"
       style="fill:#ffffff;stroke:none;stroke-width:0.79408;stroke-linecap:round;stroke-linejoin:round;paint-order:stroke markers fill;fill-opacity:1"
       d="M 0.39704001,0.39704001 V 84.26963 H 168.93629 V 0.39704001 Z M 30.993267,17.33769 l 3.271506,4.5145 -0.183328,0.0513 c -4.690297,1.31412 -6.787994,1.62651 -13.9185,2.07896 -3.01e-4,0.56414 -0.0082,0.85618 -0.04286,1.27366 h 9.965836 c 1.621758,0 2.733212,-0.051 3.686709,-0.20184 l 0.152346,-0.0253 v 5.24217 l -0.150279,-0.0191 c -1.10959,-0.15165 -2.169258,-0.2034 -3.587556,-0.2034 h -1.186213 v 3.73406 0.42646 h 5.956884 c -0.78705,-0.74984 -1.210634,-1.1685 -2.155016,-1.84452 l -0.113094,-0.0802 0.08573,-0.10971 c 2.06179,-2.62065 2.916213,-5.63158 2.916213,-10.5511 0,-0.70596 -0.05094,-1.10206 -0.152345,-1.81347 l -0.02324,-0.17181 0.171452,0.0212 c 0.807546,0.10116 1.15139,0.10195 1.557518,0.10195 1.656195,0 6.336995,-0.35717 8.307103,-0.61018 2.786494,-0.4062 4.651648,-0.86042 7.08319,-1.67269 l 0.08986,-0.031 3.436764,4.52019 -0.2107,0.0394 c -8.301899,1.56315 -8.933935,1.62859 -14.775239,1.92682 -0.03654,0.59361 -0.04763,0.97266 -0.08366,1.3223 h 12.499374 c 1.621759,0 2.679174,-0.0515 3.89173,-0.20339 l 0.14821,-0.0176 v 5.29082 l -0.151827,-0.0253 c -1.261682,-0.20235 -2.2666,-0.25205 -3.837503,-0.25205 h -3.218317 v 4.10152 c 0.88716,-0.0418 1.130321,-0.0481 1.933986,-0.14284 l 0.167837,-0.0191 -0.02117,0.1682 c -0.20226,1.62163 -0.254078,2.98421 -0.254078,6.84964 v 10.37927 c 0,2.9493 0.05197,4.62506 0.252011,5.77783 l 0.03099,0.17233 -0.175581,-0.0176 c -1.414263,-0.15185 -2.981263,-0.2034 -5.416194,-0.2034 h -2.916212 c 4.592871,2.05565 7.446495,2.76992 13.893196,3.34849 l 0.222577,0.0196 -0.124973,0.1858 c -1.267889,1.88055 -1.358027,2.11144 -2.57641,5.16402 l -0.03925,0.0999 -0.10535,-0.0176 C 47.572655,64.59102 44.090803,63.41111 38.396646,60.09928 l -0.175585,-0.1035 3.948536,-2.88116 H 27.070554 l 3.969706,3.09438 -0.181264,0.0958 c -6.300816,3.36095 -9.375901,4.38826 -16.641573,5.55942 l -0.10535,0.0176 -0.03873,-0.0999 c -0.862068,-2.18525 -1.20567,-2.87762 -2.726688,-5.11329 l -0.124974,-0.18166 0.220512,-0.0238 c 7.293976,-0.76945 10.025451,-1.4809 13.553393,-3.34849 H 22.72541 c -2.384126,0 -4.003565,0.0515 -5.468867,0.2034 l -0.167836,0.0176 0.02324,-0.1682 c 0.201259,-1.41185 0.252012,-3.23966 0.252012,-5.98534 V 40.95553 c 0,-2.23751 -0.01547,-3.03131 -0.09347,-4.5145 -0.499062,1.01488 -0.929951,1.67332 -2.209753,3.27655 l -0.101218,0.12679 -0.103799,-0.12679 c -1.571707,-1.9308 -2.42204,-2.83374 -4.194349,-4.30542 l -0.111029,-0.0921 0.09915,-0.10351 c 2.920019,-2.97682 4.024963,-6.43424 4.024963,-13.03321 0,-0.43827 -0.103658,-1.77721 -0.201403,-2.316 l -0.02892,-0.15629 h 1.028704 0.0057 c 0.500714,0.0502 0.90187,0.0507 1.003401,0.0507 2.67674,0 6.941208,-0.40751 9.364726,-0.86274 2.025655,-0.40601 3.433511,-0.80962 5.049019,-1.51795 z m 89.264413,0.40678 5.73276,1.7172 -0.0997,0.14906 c -0.27552,0.41419 -0.77558,1.3859 -1.41498,2.74399 h 6.43302 c 2.38412,0 3.58988,-0.0504 4.94987,-0.30276 l 0.15647,-0.0274 v 4.51243 c 0.54734,-0.74281 1.28327,-1.4686 1.83432,-2.43503 1.26568,-2.28317 1.91905,-3.89362 2.47519,-6.17374 l 0.031,-0.13301 5.45544,1.50242 -1.29981,3.0064 h 8.98825 c 2.73973,0 3.89554,-0.0499 5.56441,-0.30328 l 0.15234,-0.0233 v 5.44193 l -0.14821,-0.0176 c -1.72081,-0.20286 -3.03201,-0.25255 -5.56854,-0.25255 h -3.53695 c 0.79791,1.24958 1.06494,1.7011 1.93037,3.62848 l 0.0604,0.13093 -4.93024,1.71978 -0.0449,-0.12368 c -0.80023,-2.20543 -1.55068,-3.80303 -2.44575,-5.35551 h -2.49224 c -1.24824,2.04607 -2.16645,3.33171 -3.92529,5.34619 l -0.0914,0.10557 c 0.68117,0.0198 1.14159,0.0817 2.02178,0.0817 h 12.13479 c 2.58733,0 3.84826,-0.0494 5.21324,-0.20133 l 0.16784,-0.0196 -0.0217,0.1682 c -0.15103,1.16023 -0.20296,2.57941 -0.20296,5.01963 v 21.06286 c 0,2.54205 0.051,4.31547 0.25357,6.39628 l 0.0139,0.14646 h -5.81074 v -2.03601 h -11.25998 v 2.03601 h -5.76168 l 0.0155,-0.14646 c 0.15147,-1.36618 0.30469,-3.80798 0.30469,-5.98951 V 37.59835 c 0,-2.28551 -0.10145,-3.65363 -0.20296,-4.97615 l -0.0119,-0.15837 0.15803,0.0176 c 0.84406,0.0906 1.98192,0.0902 2.98851,0.11954 l -0.0997,-0.0962 c -1.26094,-1.21315 -2.25988,-1.8639 -4.08331,-2.82836 l -0.15235,-0.0802 0.11723,-0.1268 c 0.75044,-0.81146 1.05643,-1.44902 1.57507,-2.09138 -1.28118,-0.1147 -2.23624,-0.17804 -3.76107,-0.17804 h -1.96962 c 0.80088,1.26891 1.06781,1.85068 1.83691,3.68127 l 0.0547,0.12938 -4.46393,1.64319 c -0.0458,0.91276 -0.0485,1.47384 -0.0485,2.80663 v 1.03871 h 2.81241 c 1.82512,0 2.72976,-0.0498 3.73784,-0.20133 l 0.15235,-0.0233 v 5.59409 l -0.14873,-0.0176 c -1.21122,-0.15174 -2.42489,-0.20339 -3.84319,-0.20339 h -2.28722 c 1.48356,2.8252 4.17498,5.92853 7.13741,8.10572 l 0.0997,0.0725 -0.0661,0.10402 c -0.95976,1.51872 -1.76778,3.13873 -2.37345,4.80795 l -0.0702,0.19563 -0.14666,-0.14698 c -2.39926,-2.40448 -3.67688,-4.05994 -5.13888,-6.54689 0.0785,1.23021 0.13479,2.28682 0.13479,3.45252 v 8.24079 c 0,2.74569 0.0516,4.00923 0.25356,5.42589 l 0.0217,0.15061 h -6.04313 l 0.0232,-0.15216 c 0.25296,-1.67312 0.35375,-3.08768 0.35375,-5.57702 v -6.9692 c 0,-1.0749 0.0242,-2.17871 0.0857,-3.31949 -1.83913,4.30034 -3.25065,6.67586 -6.30237,10.12256 l -0.13117,0.14854 -0.0857,-0.17958 c -0.75392,-1.56149 -1.96877,-3.2851 -3.07785,-4.54815 l -0.0842,-0.0957 0.094,-0.088 c 2.53451,-2.38761 3.83933,-3.89821 5.50967,-6.73889 1.38203,-2.32486 2.48327,-4.71638 2.95701,-6.4646 h -2.28567 c -1.82512,0 -3.18951,0.0519 -4.39936,0.20339 l -0.14821,0.0176 v -5.59202 l 0.14821,0.0212 c 1.10532,0.15109 2.57424,0.20133 4.39936,0.20133 h 3.26945 V 35.4605 c 0,-2.18563 -0.0501,-3.1386 -0.2515,-4.24849 l -0.0274,-0.1563 h 4.68029 c -0.46465,-1.4641 -0.82085,-2.30744 -1.61432,-3.85516 h -2.5919 c -1.60491,2.35739 -2.82736,3.89442 -5.09394,6.2669 l -0.0961,0.0999 -0.0955,-0.0999 c -1.10596,-1.15874 -2.46639,-2.16947 -4.13393,-3.13164 l -0.15802,-0.0921 0.13685,-0.12111 c 2.22815,-1.97925 3.38158,-3.33614 4.95142,-5.77213 1.51903,-2.38498 2.16861,-3.83999 2.92809,-6.47858 z m -36.572724,1.74515 -0.0098,0.15837 c -0.101454,1.62684 -0.152342,2.79085 -0.152342,4.77275 v 8.39555 c 0,2.28746 0.0512,3.45232 0.152342,4.56729 l 0.01343,0.15629 -0.155957,-0.0134 c -1.211419,-0.10113 -2.98652,-0.15059 -4.659126,-0.15059 h -9.005829 v 21.38735 c 0,3.04963 0.101416,4.92723 0.302621,6.23792 l 0.02324,0.15266 H 63.95004 l 0.01962,-0.15059 c 0.202202,-1.5198 0.302105,-3.13923 0.302105,-6.2907 v -33.3234 c 0,-2.69477 -0.05107,-4.11383 -0.202953,-5.73745 l -0.01343,-0.15992 0.158025,0.0155 c 1.570307,0.15225 2.731317,0.2034 5.166246,0.2034 h 8.986192 c 2.638136,0 3.796935,-0.0513 5.162632,-0.2034 z m 3.218317,0.002 0.155961,0.0155 c 1.519504,0.15225 2.628164,0.2034 5.164688,0.2034 h 9.645668 c 2.43492,0 3.64527,-0.0512 5.2153,-0.2034 l 0.16422,-0.0155 -0.0196,0.16406 c -0.20223,1.67202 -0.25201,3.19146 -0.25201,5.6826 V 58.7631 c 0,1.40633 -0.11402,2.45071 -0.40178,3.25688 -0.28776,0.80618 -0.75736,1.36943 -1.43873,1.78965 v 0.002 h -0.002 c -1.04922,0.63089 -2.44606,0.83323 -5.396568,0.83323 -0.81226,0 -1.37792,-0.002 -4.72936,-0.20546 l -0.10742,-0.006 -0.0155,-0.10558 c -0.35484,-2.4386 -0.6039,-3.48476 -1.41292,-5.35965 l -0.0898,-0.21116 0.22619,0.0274 c 2.12865,0.25396 4.56599,0.45544 6.23059,0.45544 0.704418,0 1.096258,-0.0616 1.287938,-0.21322 0.0958,-0.0758 0.1563,-0.17287 0.19727,-0.3302 0.041,-0.15731 0.0563,-0.37108 0.0563,-0.64589 V 37.37533 h -9.665278 c -1.672607,0 -3.500142,0.0497 -4.608001,0.15059 l -0.14821,0.0134 0.0057,-0.1506 c 0.0508,-1.3745 0.101217,-2.38736 0.101217,-4.57298 v -8.39555 c 0,-1.93097 -0.05048,-3.29994 -0.151825,-4.77275 z m -17.035599,4.65527 v 2.38018 h 8.416582 v -2.38018 z m 22.488968,0 v 2.38018 h 9.025448 v -2.38018 z m 44.584968,1.68616 c -0.32185,0.39345 -0.64235,0.76812 -0.92697,1.14221 v 0.14335 c 0.32787,-0.42051 0.6318,-0.84194 0.92697,-1.28556 z m -1.24302,1.56089 c -0.21647,0.27216 -0.40429,0.55026 -0.60112,0.83739 0.24887,-0.28692 0.48017,-0.56354 0.69717,-0.83324 -0.0307,-5.3e-4 -0.0617,-7.9e-4 -0.096,-0.004 z M 19.624321,30.0484 c -0.243428,1.41731 -0.602177,2.57165 -1.241469,4.06426 1.550327,0.0898 2.433557,0.0962 4.19073,0.0962 h 1.087062 v -0.37574 -3.78478 z m 20.704752,0 c -0.474125,1.6888 -0.937151,2.80327 -1.670613,4.16052 h 6.374663 V 30.0484 Z m 29.538601,0.6609 v 2.43141 h 8.416582 V 30.7093 Z m 22.488968,0 v 2.43141 h 9.025448 V 30.7093 Z m 48.176648,6.86984 v 3.60104 h 11.25998 V 37.57914 Z M 23.010474,38.69806 v 1.92266 h 23.59566 v -1.92266 z m 72.711158,1.90714 -0.0155,0.15992 c -0.10112,1.01317 -0.15027,2.02517 -0.15027,3.49753 v 9.1584 c 0,1.47237 0.0493,2.48315 0.15027,3.44475 l 0.0176,0.16198 -0.16215,-0.0155 c -1.06195,-0.10139 -2.12201,-0.15216 -3.59118,-0.15216 H 80.78217 v 3.40904 h -5.659943 l 0.01549,-0.14646 c 0.151859,-1.42044 0.252011,-2.99315 0.252011,-4.92181 V 44.31398 c 0,-1.37039 -0.04918,-2.4844 -0.150278,-3.54826 l -0.01601,-0.15888 0.158025,0.0139 c 1.112536,0.1014 2.276407,0.15268 3.745581,0.15268 h 12.538636 c 1.5709,0 2.8355,-0.0515 3.89586,-0.15268 z m -72.711158,4.04509 v 1.87194 h 23.59566 v -1.87194 z m 57.771696,0.91553 v 6.39991 h 9.380736 v -6.39991 z m 59.75112,0.2034 v 3.90587 h 11.25998 v -3.90587 z m -117.522816,4.8333 v 1.92267 h 23.59566 v -1.92267 z m 117.522816,3.66367 v 3.9064 h 11.25998 v -3.9064 z"
       inkscape:connector-curvature="0" />
  </g>
</svg>
